<svg xmlns="http://www.w3.org/2000/svg" version="1.1" xmlns:xlink="http://www.w3.org/1999/xlink" xmlns:svgjs="http://svgjs.dev/svgjs" width="1920" height="1080" preserveAspectRatio="none" viewBox="0 0 1920 1080">
    <g mask="url(&quot;#SvgjsMask1060&quot;)" fill="none">
        <rect width="1920" height="1080" x="0" y="0" fill="rgba(0, 0, 0, 1)"></rect>
        <path d="M929.671,162.157C965.919,159.84,989.601,128.29,1007.404,96.63C1024.735,65.809,1038.336,29.826,1021.596,-1.321C1004.159,-33.765,966.504,-48.181,929.671,-48C893.183,-47.821,858.592,-31.394,839.295,-0.427C818.805,32.454,813.756,73.944,832.58,107.807C851.894,142.552,890,164.693,929.671,162.157" fill="#2e0d00b3" class="triangle-float1"></path>
        <path d="M1922.977,1129.286C2022.187,1131.034,2121.01,1090.025,2171.008,1004.317C2221.351,918.018,2210.347,810.551,2158.86,724.929C2108.996,642.007,2019.734,592.549,1922.977,591.85C1824.943,591.142,1730.15,636.585,1681.116,721.478C1632.067,806.397,1639.612,911.489,1689.636,995.836C1738.624,1078.437,1826.957,1127.594,1922.977,1129.286" fill="#2e0d00b3" class="triangle-float2"></path>
        <path d="M1396.64,851.452C1466.619,847.828,1531.069,812.591,1565.402,751.505C1599.065,691.612,1592.488,620.249,1560.873,559.25C1526.093,492.144,1472.119,429.849,1396.64,425.888C1315.342,421.622,1240.723,470.049,1199.57,540.291C1157.947,611.335,1150.561,701.146,1194.617,770.707C1236.205,836.372,1319.017,855.472,1396.64,851.452" fill="#2e0d00b3" class="triangle-float2"></path>
        <path d="M558.846,650.334C620.265,649.973,674.125,615.121,707.11,563.31C743.118,506.751,766.393,435.304,732.621,377.381C699.017,319.747,625.455,305.268,558.846,309.023C499.329,312.378,446.315,343.91,415.987,395.23C385.078,447.533,377.849,512.063,407.533,565.07C437.851,619.21,496.796,650.699,558.846,650.334" fill="#2e0d00b3" class="triangle-float1"></path>
        <path d="M171.229,126.246C223.285,129.201,275.505,101.165,298.145,54.197C318.733,11.486,294.845,-35.836,268.289,-75.115C245.622,-108.643,211.627,-131.093,171.229,-133.527C125.588,-136.277,74.984,-127.437,51.553,-88.173C27.72,-48.236,44.366,0.469,67.033,41.08C90.465,83.062,123.227,123.522,171.229,126.246" fill="#2e0d00b3" class="triangle-float3"></path>
        <path d="M352.803,857.334C392.225,855.661,418.839,821.92,438.563,787.746C458.28,753.584,474.666,713.403,455.897,678.711C436.457,642.777,393.657,628.794,352.803,629.225C312.791,629.647,273.925,646.493,253.408,680.846C232.386,716.044,233.317,759.881,253.435,795.603C273.944,832.019,311.047,859.106,352.803,857.334" fill="#b07243b3" class="triangle-float2"></path>
        <path d="M1189.244,422.454C1254.188,423.942,1323.303,409.605,1357.96,354.661C1394.573,296.616,1387.942,221.775,1353.13,162.633C1318.836,104.37,1256.799,65.374,1189.244,68.025C1125.553,70.524,1077.284,119.02,1046.218,174.677C1016.09,228.654,1002.501,293.689,1033.404,347.226C1064.311,400.769,1127.437,421.038,1189.244,422.454" fill="#2e0d00b3" class="triangle-float2"></path>
        <path d="M1585.996,755.805C1645.635,760.968,1702.176,725.935,1732.359,674.24C1762.794,622.114,1762.697,557.416,1732.265,505.289C1702.082,453.588,1645.813,421.116,1585.996,423.532C1529.806,425.801,1482.904,465.498,1458.853,516.331C1437.891,560.634,1454.82,608.914,1477.803,652.203C1502.899,699.471,1532.678,751.189,1585.996,755.805" fill="#2e0d00b3" class="triangle-float3"></path>
        <path d="M1224.788,1168.137C1312.668,1168.326,1389.806,1112.035,1431.367,1034.604C1470.735,961.258,1461.034,875.024,1421.408,801.817C1379.467,724.334,1312.862,655.324,1224.788,652.96C1133.35,650.505,1052.363,710.21,1008.993,790.746C967.795,867.249,976.616,958.287,1019.747,1033.716C1063.227,1109.756,1137.195,1167.948,1224.788,1168.137" fill="#b07243b3" class="triangle-float2"></path>
        <path d="M1778.789,527.618C1874.042,529.337,1975.347,504.04,2023.598,421.894C2072.327,338.934,2049.28,235.418,1998.378,153.773C1950.661,77.237,1868.968,27.689,1778.789,29.228C1691.13,30.724,1616.843,85.832,1571.806,161.052C1525.315,238.701,1504.318,334.52,1548.817,413.328C1593.928,493.22,1687.056,525.963,1778.789,527.618" fill="#2e0d00b3" class="triangle-float1"></path>
        <path d="M588.675,459.011C624.044,458.158,659.261,448.526,679.474,419.49C703.019,385.667,716.355,340.938,695.687,305.284C675.061,269.703,629.802,262.887,588.675,262.852C547.466,262.817,502.866,269.956,481.346,305.1C459.094,341.439,465.588,389.107,489.962,424.059C511.362,454.746,551.274,459.913,588.675,459.011" fill="#2e0d00b3" class="triangle-float2"></path>
        <path d="M1856.06,655.148C1953.986,661.784,2059.84,630.145,2107.437,544.307C2154.053,460.239,2116.982,359.392,2064.835,278.638C2017.813,205.82,1942.692,152.107,1856.06,155.028C1773.67,157.806,1710.242,219.812,1670.324,291.94C1631.876,361.412,1621.346,443.121,1657.497,513.815C1697.142,591.341,1769.184,649.26,1856.06,655.148" fill="#b07243b3" class="triangle-float3"></path>
        <path d="M599.535,1106.243C664.541,1108.036,716.522,1058.637,748.934,1002.259C781.223,946.094,795.948,877.411,763.242,821.488C730.788,765.996,663.757,743.959,599.535,746.806C540.376,749.429,487.651,783.047,459.178,834.969C431.78,884.93,437.578,943.786,463.762,994.393C492.642,1050.211,536.712,1104.51,599.535,1106.243" fill="#2e0d00b3" class="triangle-float1"></path>
        <path d="M762.333,546.025C814.638,546.6,872.521,534.652,896.923,488.385C920.363,443.942,890.341,394.794,864.972,351.422C839.972,308.681,811.691,262.232,762.333,258.285C707.291,253.883,654.041,284.398,626.687,332.365C599.567,379.923,603.428,439.264,632.771,485.483C660.156,528.617,711.243,545.464,762.333,546.025" fill="#2e0d00b3" class="triangle-float2"></path>
        <path d="M69.357,313.574C141.862,312.709,201.696,261.322,235.691,197.275C267.497,137.352,265.207,66.5,231.853,7.425C197.894,-52.721,138.426,-96.74,69.357,-97.325C-0.646,-97.918,-62.832,-55.913,-97.976,4.632C-133.271,65.437,-137.484,139.51,-104,201.33C-68.86,266.208,-4.421,314.455,69.357,313.574" fill="#2e0d00b3" class="triangle-float1"></path>
    </g>
    <defs>
        <mask id="SvgjsMask1060">
            <rect width="1920" height="1080" fill="#ffffff"></rect>
        </mask>
    </defs>
</svg>